Coordinates
version=1
nRows=22
nColumns=33
inDegrees=yes

Units are S.I. units (second, meters, Newtons, ...)
Angles are in degrees.

endheader
time	ground_thorax_rot_x	ground_thorax_rot_y	ground_thorax_rot_z	ground_thorax_tx	ground_thorax_ty	ground_thorax_tz	clav_prot_r	clav_elev_r	scapula_abduction_r	scapula_elevation_r	scapula_upward_rot_r	scapula_winging_r	shoulder_elv_r	plane_of_elev_r	axial_rot_r	elbow_flexion_r	pro_sup_r	wrist_flex_r	wrist_dev_r	clav_prot_l	clav_elev_l	scapula_abduction_l	scapula_elevation_l	scapula_upward_rot_l	scapula_winging_l	shoulder_elv_l	plane_of_elev_l	axial_rot_l	elbow_flexion_l	pro_sup_l	wrist_flex_l	wrist_dev_l	
2.0300	-26.126750	-24.129290	43.490963	-2.347759	788.410329	-44.837813	27.931888	-45.000000	39.129607	-45.000000	-45.000000	-4063.278579	-4065.392487	160.004026	36.904806	1080.676014	-194.095887	11.393482	13.786991	-0.487334	31.166676	-29.236227	-45.000000	-45.000000	-2796.467594	-3689.852409	133.777461	-106.693037	709.457304	44.458068	12.843114	-15.903611	
2.0400	-26.322412	-23.920735	43.001249	-5.367937	790.037792	-44.889132	27.897684	-45.000000	39.129724	-45.000000	-45.000000	-4063.377363	-4065.315598	159.923967	36.526860	1080.627675	-194.437558	11.376072	13.826536	-0.479799	31.240678	-29.368129	-45.000000	-45.000000	-2796.309462	-3689.741759	133.731512	-106.470307	709.439245	44.389846	12.912065	-16.000870	
2.0500	-26.509712	-23.726720	42.524999	-8.329917	791.675644	-44.937579	27.869291	-45.000000	39.136451	-45.000000	-45.000000	-4063.480252	-4065.237206	159.844167	36.170178	1080.572874	-194.793016	11.358576	13.861922	-0.475896	31.322311	-29.494361	-45.000000	-45.000000	-2796.152392	-3689.628763	133.690522	-106.243276	709.419518	44.314463	12.980381	-16.092023	
2.0600	-26.695565	-23.540866	42.055849	-11.229695	793.317114	-44.981134	27.837826	-45.000000	39.139432	-45.000000	-45.000000	-4063.581766	-4065.158770	159.762381	35.814288	1080.521564	-195.164424	11.340155	13.891191	-0.471515	31.392814	-29.621103	-45.000000	-45.000000	-2795.996047	-3689.517118	133.650264	-106.017368	709.403512	44.225040	13.043382	-16.174545	
2.0700	-26.877398	-23.365834	41.596956	-14.068346	794.959430	-45.017644	27.809090	-45.000000	39.144389	-45.000000	-45.000000	-4063.683897	-4065.079750	159.680115	35.464392	1080.468917	-195.550165	11.320605	13.916121	-0.468373	31.463173	-29.745481	-45.000000	-45.000000	-2795.841066	-3689.406205	133.612209	-105.790556	709.388385	44.117857	13.105734	-16.250296	
2.0800	-27.058118	-23.194481	41.143934	-16.850611	796.603475	-45.045040	27.775568	-45.000000	39.142360	-45.000000	-45.000000	-4063.783322	-4065.000641	159.594290	35.104375	1080.423965	-195.948871	11.299939	13.934129	-0.463321	31.523681	-29.872153	-45.000000	-45.000000	-2795.687858	-3689.297591	133.572551	-105.565622	709.377510	43.992465	13.165368	-16.319456	
2.0900	-27.234762	-23.029109	40.698560	-19.581330	798.251380	-45.061489	27.744158	-45.000000	39.139962	-45.000000	-45.000000	-4063.879901	-4064.921758	159.507803	34.741290	1080.380114	-196.357193	11.278325	13.946587	-0.459435	31.583245	-29.996603	-45.000000	-45.000000	-2795.536705	-3689.190229	133.532717	-105.342104	709.368624	43.850598	13.226162	-16.384902	
2.1000	-27.406340	-22.867296	40.261124	-22.263819	799.905787	-45.065747	27.710759	-45.000000	39.134652	-45.000000	-45.000000	-4063.973186	-4064.843689	159.420162	34.370499	1080.339381	-196.771319	11.256369	13.952360	-0.456140	31.638755	-30.119835	-45.000000	-45.000000	-2795.388274	-3689.084490	133.492310	-105.123602	709.363228	43.695066	13.287153	-16.447786	
2.1100	-27.571426	-22.709334	39.833157	-24.897899	801.568264	-45.057287	27.680129	-45.000000	39.128600	-45.000000	-45.000000	-4064.065184	-4064.765526	159.329933	33.998298	1080.299732	-197.186141	11.234710	13.951319	-0.455349	31.696630	-30.241203	-45.000000	-45.000000	-2795.240663	-3688.980161	133.449864	-104.909140	709.359625	43.528932	13.350808	-16.511034	
2.1200	-27.728032	-22.555822	39.417429	-27.480046	803.239285	-45.036515	27.649731	-45.000000	39.122955	-45.000000	-45.000000	-4064.157663	-4064.687923	159.237650	33.623629	1080.260367	-197.595488	11.214234	13.943741	-0.457100	31.753707	-30.359892	-45.000000	-45.000000	-2795.094780	-3688.878487	133.406276	-104.704710	709.359496	43.354137	13.415418	-16.575402	
2.1300	-27.878716	-22.407267	39.011542	-30.004388	804.918400	-45.004686	27.621688	-45.000000	39.117685	-45.000000	-45.000000	-4064.250102	-4064.612187	159.140590	33.248678	1080.220112	-197.992880	11.195877	13.930055	-0.462094	31.810414	-30.476680	-45.000000	-45.000000	-2794.945993	-3688.780334	133.359483	-104.509593	709.361491	43.172323	13.482185	-16.643383	
2.1400	-28.019635	-22.268190	38.621460	-32.464291	806.604844	-44.963792	27.591393	-45.000000	39.121054	-45.000000	-45.000000	-4064.344125	-4064.540394	159.044483	32.874447	1080.177597	-198.370908	11.180427	13.912816	-0.469655	31.864428	-30.585200	-45.000000	-45.000000	-2794.803327	-3688.685113	133.316016	-104.329188	709.369477	42.983303	13.545449	-16.712808	
2.1500	-28.153342	-22.136028	38.244932	-34.853190	808.297503	-44.916157	27.558087	-45.000000	39.128781	-45.000000	-45.000000	-4064.437698	-4064.471856	158.947901	32.498327	1080.136413	-198.725269	11.169397	13.891661	-0.477645	31.917989	-30.689131	-45.000000	-45.000000	-2794.664738	-3688.593065	133.273351	-104.160162	709.382205	42.787919	13.605124	-16.785150	
2.1600	-28.276438	-22.013050	37.886533	-37.165218	809.995000	-44.864154	27.521425	-45.000000	39.143851	-45.000000	-45.000000	-4064.532126	-4064.406492	158.854522	32.121148	1080.095096	-199.053990	11.163928	13.868395	-0.486467	31.971145	-30.784863	-45.000000	-45.000000	-2794.535379	-3688.503878	133.234677	-104.003627	709.400476	42.586443	13.658961	-16.860113	
2.1700	-28.395781	-21.895279	37.538191	-39.395674	811.695934	-44.809874	27.482830	-45.000000	39.153732	-45.000000	-45.000000	-4064.624605	-4064.344485	158.756477	31.737910	1080.056008	-199.359451	11.165483	13.841867	-0.494853	32.024583	-30.881871	-45.000000	-45.000000	-2794.403666	-3688.417722	133.193070	-103.851429	709.418782	42.380979	13.711663	-16.941948	
2.1800	-28.507127	-21.784180	37.204855	-41.541210	813.399214	-44.754989	27.443083	-45.000000	39.164229	-45.000000	-45.000000	-4064.715681	-4064.284971	158.660207	31.349709	1080.016567	-199.645179	11.173198	13.814395	-0.503475	32.077060	-30.974922	-45.000000	-45.000000	-2794.277810	-3688.333437	133.153513	-103.703770	709.438183	42.171928	13.760777	-17.029324	
2.1900	-28.613943	-21.676408	36.881411	-43.599578	815.104218	-44.700636	27.402755	-45.000000	39.170375	-45.000000	-45.000000	-4064.802670	-4064.227162	158.562707	30.954895	1079.977832	-199.916820	11.186521	13.785856	-0.511200	32.128611	-31.069192	-45.000000	-45.000000	-2794.152825	-3688.251326	133.112149	-103.558361	709.456655	41.959931	13.808014	-17.123585	
2.2000	-28.713156	-21.572931	36.570639	-45.569330	816.810922	-44.647494	27.363142	-45.000000	39.178652	-45.000000	-45.000000	-4064.886384	-4064.170635	158.467969	30.556910	1079.936908	-200.179436	11.203683	13.758188	-0.519082	32.178086	-31.160228	-45.000000	-45.000000	-2794.033866	-3688.171053	133.071580	-103.416777	709.475756	41.743783	13.851955	-17.223657	
2.2100	-28.809084	-21.474209	36.267917	-47.449293	818.519759	-44.595874	27.323731	-45.000000	39.187365	-45.000000	-45.000000	-4064.965647	-4064.118520	158.372365	30.155968	1079.893308	-200.436997	11.223409	13.732231	-0.526820	32.225851	-31.251571	-45.000000	-45.000000	-2793.914842	-3688.092305	133.029436	-103.278118	709.494590	41.521881	13.894709	-17.330648	
2.2200	-28.900854	-21.379903	35.975136	-49.238353	820.231489	-44.545866	27.284383	-45.000000	39.198410	-45.000000	-45.000000	-4065.040868	-4064.072383	158.278315	29.751943	1079.847333	-200.692150	11.244360	13.708754	-0.533558	32.272821	-31.341840	-45.000000	-45.000000	-2793.797960	-3688.014418	132.986394	-103.140748	709.514234	41.291735	13.935899	-17.444446	
2.2300	-28.989469	-21.289635	35.691565	-50.935232	821.946871	-44.497444	27.243303	-45.000000	39.213389	-45.000000	-45.000000	-4065.111644	-4064.031884	158.186360	29.341898	1079.797616	-200.946209	11.265610	13.689071	-0.538995	32.319385	-31.431131	-45.000000	-45.000000	-2793.684843	-3687.937282	132.942736	-103.002811	709.535092	41.050554	13.975897	-17.563037	
2.2400	-29.083372	-21.198616	35.408066	-52.538842	823.666655	-44.450564	27.201441	-45.000000	39.220760	-45.000000	-45.000000	-4065.175801	-4064.003001	158.085800	28.920017	1079.751395	-201.199981	11.287174	13.671092	-0.541405	32.364432	-31.530429	-45.000000	-45.000000	-2793.559026	-3687.861040	132.888461	-102.853873	709.552974	40.797469	14.020964	-17.691737	
